<svg xmlns="http://www.w3.org/2000/svg" viewBox="0 0 441.12 409.6" role="img" aria-label="FuturMeal">
  <defs>
    <mask id="seed-stack">
      <ellipse cx="360.4" cy="317.49" rx="13.33" ry="18.51" fill="#fff"/>
      <path d="M 360.4 304.16 Q 366.4 317.49 360.4 330.82" fill="none" stroke="#000" stroke-width="4" stroke-linecap="round"/>
    </mask>
  </defs>
  <g transform="translate(24 24)">
    <path fill="#FFFFFF" d="M33.28 160L11.52 160L11.52 47.52L33.28 47.52L33.28 160M84.16 113.92L27.52 113.92L27.52 94.56L84.16 94.56L84.16 113.92M86.88 66.72L27.52 66.72L27.52 47.52L86.88 47.52M134.72 161.60Q124.48 161.60 116.56 157.28Q108.64 152.96 104.16 145.28Q99.68 137.60 99.68 127.52L99.68 82.72L120.80 82.72L120.80 127.04Q120.80 131.84 122.40 135.28Q124 138.72 127.20 140.48Q130.40 142.24 134.72 142.24Q141.28 142.24 144.96 138.24Q148.64 134.24 148.64 127.04L148.64 82.72L169.60 82.72L169.60 127.52Q169.60 137.76 165.20 145.44Q160.80 153.12 152.88 157.36Q144.96 161.60 134.72 161.60M218.56 160L197.60 160L197.60 50.56L218.56 50.56L218.56 160M236.64 101.12L179.52 101.12L179.52 82.72L236.64 82.72M281.44 161.60Q271.20 161.60 263.28 157.28Q255.36 152.96 250.88 145.28Q246.40 137.60 246.40 127.52L246.40 82.72L267.52 82.72L267.52 127.04Q267.52 131.84 269.12 135.28Q270.72 138.72 273.92 140.48Q277.12 142.24 281.44 142.24Q288 142.24 291.68 138.24Q295.36 134.24 295.36 127.04L295.36 82.72L316.32 82.72L316.32 127.52Q316.32 137.76 311.92 145.44Q307.52 153.12 299.60 157.36Q291.68 161.60 281.44 161.60M353.92 160L332.96 160L332.96 82.72L353.92 82.72L353.92 160M353.92 117.28L345.76 111.84Q347.20 97.60 354.08 89.36Q360.96 81.12 373.92 81.12Q379.52 81.12 384 82.96Q388.48 84.80 392.16 88.96L379.04 104Q377.28 102.08 374.80 101.12Q372.32 100.16 369.12 100.16Q362.40 100.16 358.16 104.40Q353.92 108.64 353.92 117.28"/>
    <path fill="#FFFFFF" d="M33.28 312L11.52 312L11.52 199.52L26.88 199.52L72.48 272.48L63.68 272.48L109.12 199.52L124.48 199.52L124.48 312L102.88 312L102.88 236.80L107.04 238.08L75.36 288.96L60.64 288.96L28.96 238.08L33.28 236.80M182.24 313.60Q170.08 313.60 160.64 308.40Q151.20 303.20 145.68 294.08Q140.16 284.96 140.16 273.28Q140.16 261.76 145.52 252.72Q150.88 243.68 160.16 238.32Q169.44 232.96 180.80 232.96Q192 232.96 200.56 238Q209.12 243.04 214 251.76Q218.88 260.48 218.88 271.52Q218.88 273.60 218.64 275.76Q218.40 277.92 217.76 280.64L152.80 280.80L152.80 265.12L208 264.96L199.52 271.52Q199.20 264.64 197.04 260Q194.88 255.36 190.80 252.88Q186.72 250.40 180.80 250.40Q174.56 250.40 169.92 253.20Q165.28 256 162.80 261.04Q160.32 266.08 160.32 272.96Q160.32 280 162.96 285.20Q165.60 290.40 170.56 293.20Q175.52 296 182.08 296Q188 296 192.80 294Q197.60 292 201.12 288L213.44 300.32Q207.84 306.88 199.76 310.24Q191.68 313.60 182.24 313.60M264.16 313.60Q253.60 313.60 245.12 308.32Q236.64 303.04 231.84 293.92Q227.04 284.80 227.04 273.44Q227.04 261.92 231.84 252.80Q236.64 243.68 245.12 238.40Q253.60 233.12 264.16 233.12Q272.48 233.12 279.04 236.48Q285.60 239.84 289.52 245.84Q293.44 251.84 293.76 259.36L293.76 287.20Q293.44 294.88 289.52 300.80Q285.60 306.72 279.04 310.16Q272.48 313.60 264.16 313.60M268 294.24Q276.80 294.24 282.24 288.40Q287.68 282.56 287.68 273.28Q287.68 267.20 285.20 262.48Q282.72 257.76 278.32 255.12Q273.92 252.48 268 252.48Q262.24 252.48 257.84 255.12Q253.44 257.76 250.96 262.48Q248.48 267.20 248.48 273.28Q248.48 279.52 250.96 284.24Q253.44 288.96 257.84 291.60Q262.24 294.24 268 294.24M307.36 312L286.56 312L286.56 291.20L289.92 272.32L286.56 253.76L286.56 234.72L307.36 234.72"/>
    <rect x="325.92" y="196.32" width="20.96" height="72.88" rx="10.48" fill="#FFFFFF"/>
    <g transform="rotate(-18 360.4 317.49)">
      <ellipse cx="360.4" cy="317.49" rx="13.33" ry="18.51" fill="#00FF88" mask="url(#seed-stack)"/>
    </g>
  </g>
</svg>